<?xml version="1.0" encoding="utf-8"?>
<!-- Generator: Adobe Illustrator 19.1.0, SVG Export Plug-In . SVG Version: 6.00 Build 0)  -->
<svg version="1.1" id="Layer_1" xmlns="http://www.w3.org/2000/svg" xmlns:xlink="http://www.w3.org/1999/xlink" x="0px" y="0px"
	 viewBox="0 0 336 80" style="enable-background:new 0 0 336 80;" xml:space="preserve">
<style type="text/css">
	.st0{fill-rule:evenodd;clip-rule:evenodd;fill:#0067AC;}
	.st1{fill-rule:evenodd;clip-rule:evenodd;fill:#0089CF;}
	.st2{fill-rule:evenodd;clip-rule:evenodd;fill:#00B7E7;}
	.st3{fill:#00345E;}
	.st4{fill:#00B7E7;}
</style>
<path class="st0" d="M45.1,2.2l11.1,15.4L45.5,27.7L30.1,6.3l11.2-5.1C42.9,0.5,44.2,0.8,45.1,2.2z"/>
<path class="st1" d="M4.9,21l20.8-2.1l3.7,15.8L0.6,37.6l1.3-13.4C2,22.1,3.1,21.2,4.9,21z"/>
<path class="st2" d="M2,66.6l9.5-21l17.1,5.2L15.5,79.9L3.4,71.2C1.6,69.9,1.2,68.4,2,66.6z"/>
<g>
	<path class="st3" d="M58.8,61.8c-2.5,1.3-5.1,1.9-7.5,1.9c-8.1,0-12.8-5.6-12.8-13.5c0-7.9,5.4-14,13.4-14c2.9,0,5.3,0.7,6.7,1.4
		v2.9c-1.9-1-3.9-1.7-6.6-1.7c-6.3,0-10.2,4.8-10.2,11.2c0,6.6,3.8,11.2,9.9,11.2c2.5,0,4.6-0.7,6.4-1.7L58.8,61.8z"/>
	<path class="st3" d="M63.8,36.3h13l-0.9,2.5h-9v9.4h8.9v2.5h-8.9v10h10.2v2.5H63.8V36.3z"/>
	<path class="st3" d="M83,36.3h2.9l12.5,16.4c1.7,2.3,3,4.1,3.9,5.5h0.1c0-1.5-0.1-2.7-0.1-4.7V36.3h3v27h-2.5l-13-17
		c-1.6-2.1-2.9-3.8-3.8-5.2h-0.1c0.1,1.4,0.1,2.5,0.1,4.6v17.6h-3V36.3z"/>
	<path class="st3" d="M130.2,52.1h-6.4l-0.9-2.5h10.3v12c-1.8,0.9-5.1,2-8.8,2c-8,0-13.3-5.6-13.3-13.5c0-8.3,5.6-14.1,13.9-14.1
		c3.1,0,5.8,0.8,7.4,1.4v2.9c-1.9-1-4.3-1.7-7.2-1.7c-7,0-10.9,4.6-10.9,11.2c0,6.9,4.1,11.2,10.5,11.2c2.2,0,4.3-0.5,5.5-1.1V52.1z
		"/>
	<path class="st3" d="M147.3,36.2h2l10.3,27h-3.2l-2.7-7.2h-10.8l-2.7,7.2h-3.2L147.3,36.2z M152.8,53.5l-2.8-7.8
		c-0.8-2.4-1.3-3.6-1.6-4.7h-0.1c-0.3,1-0.8,2.3-1.6,4.7l-2.8,7.8H152.8z"/>
	<path class="st3" d="M181.1,52.1h-6.4l-0.9-2.5H184v12c-1.8,0.9-5.1,2-8.8,2c-8,0-13.3-5.6-13.3-13.5c0-8.3,5.6-14.1,13.9-14.1
		c3.1,0,5.8,0.8,7.4,1.4v2.9c-1.9-1-4.3-1.7-7.2-1.7c-7,0-10.9,4.6-10.9,11.2c0,6.9,4.1,11.2,10.5,11.2c2.2,0,4.3-0.5,5.5-1.1V52.1z
		"/>
	<path class="st3" d="M190.8,36.3h13l-0.9,2.5h-9v9.4h8.9v2.5h-8.9v10H204v2.5h-13.3V36.3z"/>
	<path class="st3" d="M209.7,36.3h4.9L226,51c1.2,1.6,2.2,2.9,3,4.2h0.1c-0.1-1.4-0.1-3.1-0.1-4.5V36.3h5v27h-4.5l-11.9-15.3
		c-1.2-1.5-2.1-2.9-3-4.1h-0.1c0.1,1.1,0.1,2.7,0.1,4.2v15.3h-4.9V36.3z"/>
	<path class="st3" d="M239.4,49.9c0-8.2,5.6-13.8,13.6-13.8c8,0,13.6,5.7,13.6,13.8c0,8.3-5.7,13.8-13.6,13.8
		C245,63.6,239.4,58.1,239.4,49.9z M261.3,49.9c0-6-3.2-9.7-8.3-9.7c-5,0-8.3,3.6-8.3,9.7c0,6.1,3.4,9.7,8.3,9.7
		C257.9,59.5,261.3,56,261.3,49.9z"/>
	<path class="st3" d="M268.5,36.3h5.6l5,15.5c0.5,1.4,0.9,2.9,1.3,4.5h0.1c0.5-1.6,0.9-3,1.4-4.5l3.6-10.8l-1.7-4.7h5l5.2,15.3
		c0.5,1.5,1.1,3.2,1.5,4.7h0.1c0.4-1.6,0.7-3.1,1.2-4.7l4.7-15.3h5.1l-9.1,27.1h-4.2l-4-11.4c-0.6-1.6-1.1-3.1-1.5-4.5h-0.1
		c-0.4,1.5-0.9,2.9-1.4,4.5l-4.1,11.5h-4.1L268.5,36.3z"/>
</g>
<g>
	<path class="st4" d="M304.3,46h3.9l4,12.4h0.1l4-12.4h3.7l-6.1,17.2h-3.4L304.3,46z"/>
	<path class="st4" d="M321.2,61.6c2.9-2.4,9.4-7.2,9.4-10.4c0-1.5-0.9-2.5-2.9-2.5c-1.5,0-3,0.8-4.1,1.9l-1.9-2.4
		c1.5-1.5,4-2.7,6.4-2.7c3.6,0,6.3,1.6,6.3,5c0,3.8-4.7,7.5-7.5,9.7c0.1,0,1.2-0.1,2-0.1h6.9v3h-14.8V61.6z"/>
</g>
</svg>
